<svg xmlns="http://www.w3.org/2000/svg" viewBox="0 0 2225.15 854.05">
  <defs>
    <style>
      .cls-1{fill:#fff}
    </style>
  </defs>
  <g id="Слой_4" data-name="Слой 4">
    <path d="M175.83 279.75h194.15a22.67 22.67 0 0 1 21.5 29.85l-25.9 77.71a22.67 22.67 0 0 1-21.51 15.5H175.83a41.32 41.32 0 0 0-41 41q0 20.52 123.05 86.14t123.06 160q0 68.1-48 116.08t-116.09 48H22.69a22.67 22.67 0 0 1-21.45-29.82l25.9-77.71A22.67 22.67 0 0 1 48.65 731h168.19a41.32 41.32 0 0 0 41-41q0-20.51-123-86.14t-123.06-160q0-68.08 48-116.08t116.05-48.03ZM570.24 607.94v223.44a22.67 22.67 0 0 1-22.67 22.68h-77.75a22.68 22.68 0 0 1-22.68-22.68V302.46a22.69 22.69 0 0 1 22.68-22.71h77.71a22.68 22.68 0 0 1 22.71 22.71v182.42h205.1V302.46a22.68 22.68 0 0 1 22.63-22.71h77.71a22.68 22.68 0 0 1 22.68 22.68v528.95a22.67 22.67 0 0 1-22.68 22.68h-77.71a22.67 22.67 0 0 1-22.67-22.68V607.94ZM1344.32 309.63l-25.91 77.71a22.66 22.66 0 0 1-21.51 15.5h-209.26v82h153.13a22.68 22.68 0 0 1 21.47 29.91l-25.91 77.72a22.66 22.66 0 0 1-21.51 15.5h-127.18V731h235.17a22.68 22.68 0 0 1 21.51 29.84l-25.91 77.71a22.67 22.67 0 0 1-21.51 15.51H987.24a22.67 22.67 0 0 1-22.67-22.68V302.46a22.68 22.68 0 0 1 22.67-22.71h335.56a22.68 22.68 0 0 1 21.52 29.88ZM1422.65 279.75h77.71a22.69 22.69 0 0 1 22.68 22.68V731h235.2a22.67 22.67 0 0 1 21.51 29.84l-25.9 77.71a22.68 22.68 0 0 1-21.51 15.51h-309.69a22.67 22.67 0 0 1-22.67-22.68V302.46a22.68 22.68 0 0 1 22.67-22.71ZM2215.11 309.63l-25.87 77.71a22.68 22.68 0 0 1-21.51 15.5h-209.3v82h153.13a22.67 22.67 0 0 1 21.51 29.91l-25.9 77.72a22.67 22.67 0 0 1-21.51 15.5h-127.23v223.41a22.67 22.67 0 0 1-22.67 22.68h-77.71a22.67 22.67 0 0 1-22.68-22.68V302.46a22.68 22.68 0 0 1 22.68-22.71h335.55a22.68 22.68 0 0 1 21.51 29.88Z" class="cls-1"/>
  </g>
  <g id="Слой_3" data-name="Слой 3">
    <path d="M1588.34 0q35.7 0 60.94 25.24t25.24 61q0 30.3-18.17 53.06c-16.91 21.17-42.85 33.12-69.94 33.12h-56.43a3.2 3.2 0 0 1-3.2-3.2v-166a3.2 3.2 0 0 1 3.2-3.2Zm0 135.43a47.47 47.47 0 0 0 34.84-14.4 47.48 47.48 0 0 0 14.41-34.84 47.5 47.5 0 0 0-14.41-34.85 47.47 47.47 0 0 0-34.84-14.4h-21.42a3.21 3.21 0 0 0-3.21 3.2v92.09a3.21 3.21 0 0 0 3.21 3.2ZM1683.51 104.65V3.2a3.2 3.2 0 0 1 3.2-3.2h30.53a3.2 3.2 0 0 1 3.2 3.2v101.45a30.78 30.78 0 1 0 61.56 0V3.2a3.21 3.21 0 0 1 3.2-3.2h30.54a3.21 3.21 0 0 1 3.2 3.2v101.45q0 28.08-19.82 47.9t-47.88 19.82q-28.07 0-47.89-19.82t-19.84-47.9ZM1875.45 0h63.27a3.2 3.2 0 0 1 3 4.22l-10.14 30.53a3.2 3.2 0 0 1-3 2.19h-53.09a12.39 12.39 0 0 0-12.35 12.31q0 6.16 36.93 25.86t36.94 48a49.2 49.2 0 0 1-49.25 49.25h-63.27a3.2 3.2 0 0 1-3-4.21l10.18-30.54a3.2 3.2 0 0 1 3-2.19h53.1a12.39 12.39 0 0 0 12.31-12.31q0-6.15-36.93-25.85t-36.91-48.01a47.44 47.44 0 0 1 14.41-34.84A47.46 47.46 0 0 1 1875.45 0ZM1983.05 36.94h-30.53a3.2 3.2 0 0 1-3.2-3.2V3.2a3.2 3.2 0 0 1 3.2-3.2h109.32a3.2 3.2 0 0 1 3 4.22l-10.14 30.53a3.2 3.2 0 0 1-3 2.19h-25.27a3.2 3.2 0 0 0-3.2 3.2v129a3.2 3.2 0 0 1-3.2 3.2h-30.53a3.21 3.21 0 0 1-3.21-3.2v-129a3.2 3.2 0 0 0-3.24-3.2ZM2127.24 90.66 2068 5.03a3.2 3.2 0 0 1 2.63-5h36.61a3.18 3.18 0 0 1 2.63 1.39l33.84 49a3.2 3.2 0 0 0 5.27 0l33.84-49a3.21 3.21 0 0 1 2.63-1.38h36.54a3.2 3.2 0 0 1 2.63 5l-59.24 85.63a3.18 3.18 0 0 0-.56 1.82v76.69a3.21 3.21 0 0 1-3.21 3.2h-30.57a3.2 3.2 0 0 1-3.2-3.2v-76.7a3.19 3.19 0 0 0-.6-1.82Z" class="cls-1"/>
  </g>
</svg>
