<?xml version="1.0" standalone="no"?>
<!DOCTYPE svg PUBLIC "-//W3C//DTD SVG 20010904//EN"
 "http://www.w3.org/TR/2001/REC-SVG-20010904/DTD/svg10.dtd">
<svg version="1.0" xmlns="http://www.w3.org/2000/svg"
 width="877.000000pt" height="877.000000pt" viewBox="0 0 877.000000 877.000000"
 preserveAspectRatio="xMidYMid meet">
<metadata>
Created by potrace 1.14, written by Peter Selinger 2001-2017
</metadata>
<g transform="translate(0.000000,877.000000) scale(0.100000,-0.100000)"
fill="#000000" stroke="none">
<path d="M2668 8765 c-2 -2 -13 -6 -24 -8 -33 -5 -111 -47 -139 -75 -35 -34
-74 -96 -88 -136 -6 -20 -11 -439 -12 -1211 -2 -649 -3 -1182 -4 -1185 -1 -3
-198 -5 -438 -5 -378 1 -488 -3 -538 -20 -5 -1 -20 -6 -32 -10 -13 -4 -23 -11
-23 -16 0 -5 -6 -9 -13 -9 -7 0 -23 -11 -35 -25 -12 -14 -26 -25 -30 -25 -5 0
-24 -30 -43 -67 l-34 -68 -3 -325 c-1 -179 -3 -356 -5 -395 l-2 -70 -450 -1
c-247 0 -466 -4 -485 -8 -61 -14 -126 -54 -169 -102 -22 -26 -41 -53 -41 -60
0 -8 -4 -14 -8 -14 -32 0 -33 -103 -30 -2405 l3 -2290 29 -54 c26 -50 87 -121
103 -121 3 0 14 -6 22 -14 9 -8 41 -21 71 -30 47 -14 121 -16 532 -16 448 1
481 2 534 20 57 20 58 20 113 0 53 -19 83 -20 536 -19 453 0 483 1 538 20 l59
20 54 -20 c52 -20 76 -21 544 -21 464 1 492 2 536 20 47 21 84 26 84 12 0 -4
24 -13 54 -20 71 -16 994 -16 1035 0 14 6 40 17 58 25 29 12 36 11 69 -6 21
-11 41 -18 45 -15 4 2 10 0 14 -6 9 -14 1002 -13 1011 1 3 6 12 8 19 5 7 -2
16 -2 20 2 4 4 10 7 13 7 4 1 17 6 29 13 19 10 28 10 55 -5 18 -9 38 -16 45
-15 6 1 14 -2 18 -7 4 -7 182 -10 493 -11 498 0 531 2 602 40 16 8 27 7 48 -4
15 -8 42 -19 60 -25 43 -13 1019 -14 1027 -1 3 6 13 10 22 10 55 0 153 87 192
170 l26 55 0 4147 c0 3304 -3 4150 -12 4160 -7 6 -13 19 -13 27 0 8 -18 38
-40 67 -30 40 -56 61 -107 86 l-68 33 -502 3 c-277 1 -511 -2 -521 -7 -75 -38
-92 -42 -123 -25 -17 8 -41 18 -52 22 -12 3 -243 8 -513 9 -436 3 -496 1 -540
-14 -27 -9 -51 -19 -54 -23 -7 -9 -23 -6 -90 19 -53 20 -73 20 -555 18 l-500
-2 -48 -23 c-32 -15 -52 -20 -60 -14 -7 5 -34 16 -61 25 -42 14 -112 17 -530
16 -449 0 -485 -1 -538 -19 -56 -19 -57 -19 -113 0 -53 18 -86 20 -539 20
-266 0 -485 -2 -488 -5z"/>
</g>
</svg>
